<?xml version="1.0" encoding="UTF-8"?>
<!DOCTYPE svg PUBLIC "-//W3C//DTD SVG 1.1//EN" "http://www.w3.org/Graphics/SVG/1.1/DTD/svg11.dtd">
<svg xmlns="http://www.w3.org/2000/svg" version="1.1" width="120px" height="120px" style="shape-rendering:geometricPrecision; text-rendering:geometricPrecision; image-rendering:optimizeQuality; fill-rule:evenodd; clip-rule:evenodd" xmlns:xlink="http://www.w3.org/1999/xlink">
<g><path style="opacity:0.813" fill="#0077ff" d="M 51.5,5.5 C 56.3782,6.36936 61.2115,6.70269 66,6.5C 68.1252,10.2631 69.9585,14.2631 71.5,18.5C 76.465,21.3529 80.7983,20.5196 84.5,16C 86.5787,15.1923 88.5787,15.359 90.5,16.5C 94.4171,20.245 97.7505,24.4117 100.5,29C 98.9509,32.5966 97.2842,36.0966 95.5,39.5C 95.8988,41.1966 96.3988,42.8632 97,44.5C 100.525,46.1345 104.192,47.4679 108,48.5C 109.301,49.0981 110.135,50.0981 110.5,51.5C 109.711,57.1152 109.211,62.7818 109,68.5C 105.527,69.6575 102.027,70.8242 98.5,72C 96.0779,74.0027 95.2446,76.5027 96,79.5C 98.0298,82.2263 99.5298,85.2263 100.5,88.5C 100.281,89.938 99.7811,91.2713 99,92.5C 95.6234,96.1024 91.7901,99.1024 87.5,101.5C 83.8127,100.57 80.3127,99.2362 77,97.5C 75.3732,97.6251 73.8732,98.1251 72.5,99C 70.2002,103.209 68.2002,107.542 66.5,112C 60.5,112.667 54.5,112.667 48.5,112C 46.7999,108.709 45.6333,105.209 45,101.5C 40.7768,96.331 36.2768,96.1644 31.5,101C 29.5,101.667 27.5,101.667 25.5,101C 22,97.5 18.5,94 15,90.5C 15.1876,85.9394 16.6876,81.7727 19.5,78C 18.2869,76.3697 17.4536,74.5364 17,72.5C 12.6012,70.8309 8.26785,69.1643 4,67.5C 3.20973,61.4478 3.3764,55.4478 4.5,49.5C 8.26331,47.4431 12.2633,45.9431 16.5,45C 18.9221,42.9973 19.7554,40.4973 19,37.5C 15.139,34.0605 14.139,30.0605 16,25.5C 19.3491,22.4302 22.5157,19.2635 25.5,16C 27.1667,15.3333 28.8333,15.3333 30.5,16C 34.6277,20.87 39.2944,21.5366 44.5,18C 45.5308,14.4109 46.8641,10.9109 48.5,7.5C 49.6016,6.82434 50.6016,6.15767 51.5,5.5 Z M 50.5,28.5 C 76.8411,27.5003 89.0077,40.167 87,66.5C 82.3215,80.755 72.4882,88.0883 57.5,88.5C 43.8998,88.4119 34.3998,82.0786 29,69.5C 24.5945,49.6406 31.7612,35.974 50.5,28.5 Z"/></g>
<g><path style="opacity:0.586" fill="#0077ff" d="M 57.5,44.5 C 60.1268,44.2933 61.7935,45.46 62.5,48C 60.1888,56.432 58.1888,64.932 56.5,73.5C 54.8008,73.6602 53.1341,73.4935 51.5,73C 51.18,63.1003 53.18,53.6003 57.5,44.5 Z"/></g>
<g><path style="opacity:0.56" fill="#0077ff" d="M 41.5,45.5 C 43.5,45.5 45.5,45.5 47.5,45.5C 47.1385,51.7055 44.1385,56.2055 38.5,59C 41,61.5 43.5,64 46,66.5C 47.2022,68.6775 47.7022,71.0108 47.5,73.5C 45.4727,73.6621 43.4727,73.4955 41.5,73C 39,69.1667 35.8333,66 32,63.5C 30,60.8333 30,58.1667 32,55.5C 35.3986,52.2711 38.5653,48.9378 41.5,45.5 Z"/></g>
<g><path style="opacity:0.551" fill="#0077ff" d="M 66.5,45.5 C 68.5273,45.3379 70.5273,45.5045 72.5,46C 77.1453,49.8012 80.812,54.3012 83.5,59.5C 81.824,62.8512 79.6573,65.8512 77,68.5C 74.8333,69.3333 73.3333,70.8333 72.5,73C 70.2305,73.7581 68.0639,73.5914 66,72.5C 65.3333,71.5 65.3333,70.5 66,69.5C 68.6458,66.0198 71.4791,62.6865 74.5,59.5C 70.9135,56.0855 67.9135,52.2522 65.5,48C 65.7432,47.0979 66.0766,46.2646 66.5,45.5 Z"/></g>
</svg>
